/* XPM */
static char *spriteB2_xpm[] = {
/* width height num_colors chars_per_pixel */
"    32    32      256            2",
/* colors */
"`` c #535348",
"`. c #28161e",
"`# c #31222b",
"`a c #302027",
"`b c #33242c",
"`c c #352831",
"`d c #352730",
"`e c #352931",
"`f c #301f26",
"`g c #28171e",
"`h c #170106",
"`i c #40343e",
"`j c #878b9a",
"`k c #837f8b",
"`l c #949fac",
"`m c #a4b9c9",
"`n c #a0b3c2",
"`o c #949eab",
"`p c #827e8a",
"`q c #40353e",
"`r c #180107",
"`s c #545e6e",
"`t c #a89fa0",
"`u c #bb9081",
"`v c #afc5d7",
"`w c #a1a8af",
"`x c #9d887f",
"`y c #9f918b",
"`z c #9c867d",
"`A c #a5aeb5",
"`B c #b9d2e3",
"`C c #bc9283",
"`D c #a79e9f",
"`E c #545e6f",
"`F c #28161d",
"`G c #3e2f37",
"`H c #8e929a",
"`I c #bb907c",
"`J c #c16339",
"`K c #b89d92",
"`L c #a0705b",
"`M c #93421d",
"`N c #974e2c",
"`O c #92401b",
"`P c #a57561",
"`Q c #c2aaa0",
"`R c #c2653a",
"`S c #ba8f7a",
"`T c #8e929b",
"`U c #9297a6",
"`V c #9a837c",
"`W c #9b6146",
"`X c #c37e60",
"`Y c #c07453",
"`Z c #bf7757",
"`0 c #c27c5e",
"`1 c #c27b5d",
"`2 c #c27d5e",
"`3 c #bf7656",
"`4 c #bf7352",
"`5 c #35272e",
"`6 c #a7b8c6",
"`7 c #c2d6e1",
"`8 c #b1bdc6",
".` c #b7c4ce",
".. c #b1bac2",
".# c #b0bac3",
".a c #b2bdc7",
".b c #b0bac2",
".c c #2a1920",
".d c #41373f",
".e c #525562",
".f c #494e5e",
".g c #585d6b",
".h c #97aabc",
".i c #a7bccf",
".j c #9cadbf",
".k c #97a7b8",
".l c #98aabc",
".m c #2b1b23",
".n c #4e4852",
".o c #4e3432",
".p c #260000",
".q c #291015",
".r c #70636c",
".s c #786b73",
".t c #786d76",
".u c #8f8c98",
".v c #392c35",
".w c #9db1c0",
".x c #ac978d",
".y c #7b5042",
".z c #58464d",
".A c #4f383d",
".B c #4d3337",
".C c #6b5e66",
".D c #979ba9",
".E c #40343b",
".F c #6e656d",
".G c #a3a4af",
".H c #523b40",
".I c #726770",
".J c #979aa8",
".K c #9496a3",
".L c #2b191c",
".M c #5f5965",
".N c #a7b1c1",
".O c #8b8a97",
".P c #574247",
".Q c #604e55",
".R c #70656e",
".S c #685960",
".T c #2d1a1f",
".U c #605761",
".V c #a8aebb",
".W c #8d8e9b",
".X c #59454b",
".Y c #492e32",
".Z c #4a3237",
".0 c #473037",
".1 c #3d2e35",
".2 c #69646e",
".3 c #9ea2af",
".4 c #817d88",
".5 c #553f44",
".6 c #4b3337",
".7 c #543c40",
".8 c #583d3f",
"#` c #382931",
"#. c #939fac",
"## c #a4afbd",
"#a c #746a74",
"#b c #4f373c",
"#c c #483239",
"#d c #5f3f3b",
"#e c #87553e",
"#f c #35272f",
"#g c #b6cddb",
"#h c #d4f0ff",
"#i c #9ea5b2",
"#j c #827b84",
"#k c #88828d",
"#l c #888591",
"#m c #928990",
"#n c #a49392",
"#o c #2e1e26",
"#p c #6b6c77",
"#q c #808995",
"#r c #747782",
"#s c #6b6772",
"#t c #6b6672",
"#u c #6c6873",
"#v c #696672",
"#w c #646372",
"#x c #2d1b22",
"#y c #2e1b22",
"#z c #342127",
"#A c #311f25",
"#B c #322126",
"#C c #322026",
"#D c #332126",
"#E c #000000",
"#F c #000000",
"#G c #000000",
"#H c #000000",
"#I c #000000",
"#J c #000000",
"#K c #000000",
"#L c #000000",
"#M c #000000",
"#N c #000000",
"#O c #000000",
"#P c #000000",
"#Q c #000000",
"#R c #000000",
"#S c #000000",
"#T c #000000",
"#U c #000000",
"#V c #000000",
"#W c #000000",
"#X c #000000",
"#Y c #000000",
"#Z c #000000",
"#0 c #000000",
"#1 c #000000",
"#2 c #000000",
"#3 c #000000",
"#4 c #000000",
"#5 c #000000",
"#6 c #000000",
"#7 c #000000",
"#8 c #000000",
"a` c #000000",
"a. c #000000",
"a# c #000000",
"aa c #000000",
"ab c #000000",
"ac c #000000",
"ad c #000000",
"ae c #000000",
"af c #000000",
"ag c #000000",
"ah c #000000",
"ai c #000000",
"aj c #000000",
"ak c #000000",
"al c #000000",
"am c #000000",
"an c #000000",
"ao c #000000",
"ap c #000000",
"aq c #000000",
"ar c #000000",
"as c #000000",
"at c #000000",
"au c #000000",
"av c #000000",
"aw c #000000",
"ax c #000000",
"ay c #000000",
"az c #000000",
"aA c #000000",
"aB c #000000",
"aC c #000000",
"aD c #000000",
"aE c #000000",
"aF c #000000",
"aG c #000000",
"aH c #000000",
"aI c #000000",
"aJ c #000000",
"aK c #000000",
"aL c #000000",
"aM c #000000",
"aN c #000000",
"aO c #000000",
"aP c #000000",
"aQ c #000000",
"aR c #000000",
"aS c #000000",
"aT c #000000",
"aU c #000000",
"aV c #000000",
"aW c #000000",
"aX c #000000",
"aY c #000000",
"aZ c #000000",
"a0 c #000000",
"a1 c #000000",
"a2 c #000000",
"a3 c #000000",
"a4 c #000000",
"a5 c #000000",
"a6 c #000000",
"a7 c #000000",
"a8 c #000000",
/* pixels */
"````````````````````````````````````````````````````````````````",
"````````````````````````````````````````````````````````````````",
"````````````````````````````````````````````````````````````````",
"````````````````````````````````````````````````````````````````",
"````````````````````````````````````````````````````````````````",
"````````````````````````````````````````````````````````````````",
"````````````````````````````````````````````````````````````````",
"`````````````````````.`#`a`b`c`d`d`e`b`f`#`g````````````````````",
"```````````````````h`i`j`k`l`m`n`n`m`o`p`j`q`h``````````````````",
"`````````````````r`s`t`u`v`w`x`y`y`z`A`B`C`D`E`r````````````````",
"```````````````F`G`H`I`J`K`L`M`N`N`O`P`Q`R`S`T`G`F``````````````",
"```````````````b`U`V`W`X`Y`Z`0`1`1`2`3`4`X`W`V`U`b``````````````",
"```````````````5`6`7`8.`...#.a.a.a.a.b.b.``8`7`6`5``````````````",
"``````````````.c.d.e.f.g.h.i.j.k.k.j.i.l.g.f.e.d.c``````````````",
"``````````````.m.n.o.p.q.r.s.t.u.u.t.s.r.q.p.o.n.m``````````````",
"``````````````.v.w.x.y.z.A.B.C.D.D.C.B.A.z.y.x.w.v``````````````",
"````````````````.E.F.G`k.H.I.J.K.K.J.I.H`k.G.F.E````````````````",
"````````````````.L.M.N.O.P.Q.R.S.S.R.Q.P.O.N.M.L````````````````",
"````````````````.T.U.V.W.X.Y.Z.0.0.Z.Y.X.W.V.U.T````````````````",
"````````````````.1.2.3.4.5.6.7.8.8.7.6.5.4.3.2.1````````````````",
"``````````````#`#.###a#b.B#c#d#e#e#d#c.B#b#a###.#```````````````",
"``````````````#f#g#h#i#j#k#l#m#n#n#m#l#k#j#i#h#g#f``````````````",
"``````````````#o#p#q#r#s#t#u#v#w#w#v#u#t#s#r#q#p#o``````````````",
"``````````````#x#y#z#A#B#B#C#B#D#D#B#C#B#B#A#z#y#x``````````````",
"````````````````````````````````````````````````````````````````",
"````````````````````````````````````````````````````````````````",
"````````````````````````````````````````````````````````````````",
"````````````````````````````````````````````````````````````````",
"````````````````````````````````````````````````````````````````",
"````````````````````````````````````````````````````````````````",
"````````````````````````````````````````````````````````````````",
"````````````````````````````````````````````````````````````````"
};
