/* XPM */
static char *_a81cf994c5040b1accfbcf2c42f7187gRNfT1E5ALdigG3M[] = {
/* columns rows colors chars-per-pixel */
"32 32 117 2 ",
"   c None",
".  c #4E342E",
"X  c #4E3832",
"o  c #4A3935",
"O  c #4E3A35",
"+  c #4D3C37",
"@  c #473B39",
"#  c #463D3B",
"$  c #433E3D",
"%  c #463E3D",
"&  c #483B39",
"*  c #4D3D39",
"=  c #4F3D39",
"-  c #533B35",
";  c #583C34",
":  c #593E37",
">  c #5B3F37",
",  c #523E38",
"<  c #553F39",
"1  c #33691E",
"2  c #39572E",
"3  c #3D4F36",
"4  c #5F5A2F",
"5  c #4C4A39",
"6  c #56413B",
"7  c #57433E",
"8  c #59423B",
"9  c #5F4139",
"0  c #5E443D",
"q  c #495632",
"w  c #545037",
"e  c #575434",
"r  c #63443A",
"t  c #62463D",
"y  c #66463D",
"u  c #6A4A3F",
"i  c #4F613F",
"p  c #6D6625",
"a  c #66662E",
"s  c #7A7529",
"d  c #414141",
"f  c gray26",
"g  c #4E4642",
"h  c #464C41",
"j  c #4F4C41",
"k  c #504542",
"l  c #5F4942",
"z  c #594B47",
"x  c #505050",
"c  c #535353",
"v  c gray34",
"b  c #5A5A5A",
"n  c #634941",
"m  c #684B41",
"M  c #6D4C41",
"N  c #635341",
"B  c #695846",
"V  c #6B534C",
"C  c #755F58",
"Z  c #5E7546",
"A  c #60704E",
"S  c #627A49",
"D  c #696756",
"F  c #646464",
"G  c gray42",
"H  c gray45",
"J  c gray46",
"K  c gray48",
"L  c #827717",
"P  c #927C2B",
"I  c #966F35",
"U  c #9A7C3D",
"Y  c #A57235",
"T  c #8F6254",
"R  c #81655C",
"E  c #8F695D",
"W  c #9D6D5E",
"Q  c #8F7B5B",
"!  c #689F38",
"~  c #638047",
"^  c #698D46",
"/  c #709F44",
"(  c #789F4F",
")  c #6D8352",
"_  c #748F56",
"`  c #7C9F56",
"'  c #7F9F5A",
"]  c #79AE47",
"[  c #77A64A",
"{  c #B7822E",
"}  c #C1862F",
"|  c #D5922B",
" . c #DC932B",
".. c #C79031",
"X. c #FFA726",
"o. c #8BBD56",
"O. c #C18977",
"+. c #D5937F",
"@. c #EB8A6B",
"#. c #FF8A65",
"$. c #FF9574",
"%. c #FF9879",
"&. c #9CCC65",
"*. c gray52",
"=. c gray53",
"-. c #909090",
";. c #959595",
":. c #9A9A9A",
">. c #A99690",
",. c gray74",
"<. c #FFA083",
"1. c #FFA78C",
"2. c #FFAB91",
"3. c #E1B5A8",
"4. c #FEBCA8",
"5. c #FCE0D8",
"6. c gray98",
/* pixels */
"                                                                ",
"                                  d d   d d d   d               ",
"                              d d d d d M O o d . # d           ",
"                            g l l l l l M 0 , o 8 + & d         ",
"                          d k M r r y M M M 0 O M < * k         ",
"                  d d d d d k M . . > M M M M M M M M M d       ",
"        d     d d ;.,.,.J c k M M M r . M M r . . r 8 . . # d   ",
"      d p w F ;.;.*.K G c z n M > 7 6 . > y u r r > > 8 . # d   ",
"      d p D *.,.:.H b d d l m l - V V - - t m l r > 9 M o %     ",
"        d ;.,.,.J c d   d l l d d O.O.d d l l d . r M M d       ",
"      d ,.,.:.J d         d d   d O.O.d 6.>.R 2.d l 8 . . # d   ",
"      d ,.-.H c p w             d O.O.d 6.3.+.2.d * X . # $     ",
"    v G :.H b d p 4 w           R +.+.R 5.4.1.<.d @ o o d       ",
"  d G ,.J c d   d p p d       d 2.2.2.2.2.2.<.#.d d d d         ",
"  d c J d         d e L d       d O.2.2.2.$.@.d ! i d           ",
"  d c J d           5 e p w       C R R R W Q ' ( ` ) d         ",
"    c F d             d p 4 w     d A A A A _ &.&.&.' d         ",
"      d                 d p p d d d &.&.&.&.&.&.&.&.' d         ",
"                          d R 2.<.#.&.&.&.&.o.! &.] / d         ",
"                          d R 2.<.#.&.&.] ] [ ~ A S Z           ",
"                          d E <.%.#.' ' / / ^ d i h d           ",
"                          d T #.#.#.d d d d d d ! i d           ",
"                              d d d d d d ' &.&.! i d           ",
"                                d I I d } ..U B N j d           ",
"                                d } } d X.X.Y M l g             ",
"                                d } } d X.X.Y M d               ",
"                                d } } d X.X.Y M M k d           ",
"                                d a a d s |  .Y M k d           ",
"                                3 2 2 3 1 P { Y M k d           ",
"                              d 1 3 3 1 1 1 q M M k d           ",
"                              d d d d d d d d d d d d           ",
"                                                                "
};
