/* XPM */
static char *player[] = {
/* columns rows colors chars-per-pixel */
"32 32 183 2 ",
"   c #535348",
".  c #000015",
"X  c #3F090C",
"o  c #370115",
"O  c #3C1C1A",
"+  c #39181E",
"@  c #3C3C00",
"#  c #29201D",
"$  c #000023",
"%  c #270023",
"&  c #2B0524",
"*  c #261723",
"=  c #3A1C22",
"-  c #34192A",
";  c #371B25",
":  c #282327",
">  c #2C212B",
",  c #35242D",
"<  c #382526",
"1  c #2E2937",
"2  c #272638",
"3  c #392D34",
"4  c #352E38",
"5  c #36323D",
"6  c #3E363D",
"7  c #373233",
"8  c #470007",
"9  c #4C090F",
"0  c #421A1B",
"q  c #44151A",
"w  c #561C17",
"e  c #42251E",
"r  c #452015",
"t  c #54231E",
"y  c #56281B",
"u  c #59251F",
"i  c #4A1C22",
"p  c #401C32",
"a  c #452422",
"s  c #42252B",
"d  c #462E29",
"f  c #4A2A27",
"g  c #5B2921",
"h  c #572B22",
"j  c #403521",
"k  c #44362E",
"l  c #4A362B",
"z  c #40382A",
"x  c #4C3A2B",
"c  c #4E3224",
"v  c #563425",
"b  c #563B26",
"n  c #52352C",
"m  c #5D3828",
"M  c #433332",
"N  c #453937",
"B  c #6D2E24",
"V  c #603A27",
"C  c #643D29",
"Z  c #673E34",
"A  c #48432A",
"S  c #51412F",
"D  c #4E4332",
"F  c #46423A",
"G  c #4D4B32",
"H  c #544632",
"J  c #594433",
"K  c #5E4B34",
"L  c #504638",
"P  c #54493A",
"I  c #495237",
"U  c #5D5537",
"Y  c #5C543C",
"T  c #5E593C",
"R  c #66452E",
"E  c #624333",
"W  c #6C4635",
"Q  c #6A4738",
"!  c #66433B",
"~  c #64553B",
"^  c #6B533B",
"/  c #635B3E",
"(  c #6B5B3F",
")  c #78573E",
"_  c #4F6E37",
"`  c #342D41",
"'  c #3E3A44",
"]  c #3E394A",
"[  c #3A3543",
"{  c #413B43",
"}  c #443F4A",
"|  c #453743",
" . c #45404B",
".. c #494449",
"X. c #584F40",
"o. c #5A5543",
"O. c #575248",
"+. c #474150",
"@. c #4B4452",
"#. c #645B44",
"$. c #6B5D42",
"%. c #745740",
"&. c #795445",
"*. c #656443",
"=. c #6C6343",
"-. c #696648",
";. c #756744",
":. c #786044",
">. c #746B46",
",. c #786947",
"<. c #756C49",
"1. c #796C49",
"2. c #73664E",
"3. c #77704C",
"4. c #7E734D",
"5. c #7A7252",
"6. c #4D7E64",
"7. c #A70000",
"8. c #822920",
"9. c #8C2B21",
"0. c #912D21",
"q. c #992F22",
"w. c #973825",
"e. c #9B3225",
"r. c #A53223",
"t. c #AE3525",
"y. c #A6372A",
"u. c #B33525",
"i. c #BD3925",
"p. c #D0321F",
"a. c #C33724",
"s. c #CD3521",
"d. c #CD3A26",
"f. c #C43824",
"g. c #DE3520",
"h. c #D33B25",
"j. c #D93C26",
"k. c #E33D24",
"l. c #EB3D24",
"z. c #914B32",
"x. c #835D3D",
"c. c #985E3E",
"v. c #AE4D32",
"b. c #D8452C",
"n. c #F14126",
"m. c #815B47",
"M. c #875E4A",
"N. c #995D51",
"B. c #81674A",
"V. c #92674F",
"C. c #807046",
"Z. c #80714D",
"A. c #816A54",
"S. c #936952",
"D. c #9A6E57",
"F. c #857150",
"G. c #867C53",
"H. c #9C7459",
"J. c #907C53",
"K. c #A2765D",
"L. c #A5785E",
"P. c #BF735A",
"I. c #A77761",
"U. c #C06344",
"Y. c #888055",
"T. c #8F8658",
"R. c #938A5B",
"E. c #9A815C",
"W. c #83975A",
"Q. c #A3805F",
"!. c #AE8164",
"~. c #A58661",
"^. c #BE926F",
"/. c #C08D6E",
"(. c #C49171",
"). c #D09C79",
"_. c #D5A07E",
"`. c #C4B17F",
"'. c #D49D81",
"]. c #DAAB87",
"[. c #E7B394",
"{. c #C7C097",
"}. c #FBC4A4",
/* pixels */
"                                                                ",
"                                                                ",
"              a.9.                                              ",
"              u.<   # 9.8.u                                     ",
"              r.h.f.d.d.j.h.r.u                                 ",
"            a.g.k.k.l.l.h.h.n.t.                                ",
"          q.k.z.h.i.w.b.s.u.t.a.g                               ",
"          e.k.J.U.7.%.C.i.s.0.p.r.^     >.                      ",
"          f 0.g _ P.@ 6.y.a.r.v.c./ =.4.=.=.                    ",
"            i ) `.}.W.{.N.B W x.I         <./                   ",
"              m.'.[.[._.&.x m z w r           / b               ",
"                U E !.E.A k p 5.;.S.2.| $.B.    + g y           ",
"              n <.=./ Y 6  .2 5.;.I.].-.F :.      = h y         ",
"      !.&.  H.^.T ~ =.M +.@.4 Y x s W x &             f ~ <.U   ",
"     .A.V.a D.Q.T % T.=.5 6 3 =       e                 <.J O   ",
"    3 5 < d L.Q * k =.3 : > 2 >       =.=.( $.                  ",
"                L $.x o.' ..O.F H H ~ ^ ~     (                 ",
"                =.Y $ *.#.#.=.>.n K 1.,.a                       ",
"                b =./ / =.=.=.S , d   1.4.a                     ",
"                N X.o.o.P M { ' ' ;     Y.$.                    ",
"              | @.] [ 1 ] }  .{ 7 ,     R.4.q                   ",
"          , }  .@. ., + { +.} { 3 -     R.4.0                   ",
"          { ' { ' [ s s - ` { 5 ,       G.~                     ",
"          { } ` N l . . P >.*.-.T *     (                       ",
"            , $.>.J S.&.H F.~.E.^ E                             ",
"              ~ J   H.Q.x ! (./.(.).K.0                         ",
"                      j b X l E m.K.M.Z G.k                     ",
"                    0 w w b G       d Z.3.f u O                 ",
"                    ~ ( K           D 1.l o b x                 ",
"                                  = q 8 9 c D                   ",
"                                  e C V R >.                    ",
"                                    4.4.                        "
};
